<svg width="32" height="35" viewBox="0 0 32 35" fill="none" xmlns="http://www.w3.org/2000/svg">
<path d="M2.00007 0.903687C1.46962 0.903687 0.960891 1.11056 0.585806 1.47879C0.210721 1.84702 0 2.34645 0 2.86721C0 3.38797 0.210721 3.8874 0.585806 4.25563C0.960891 4.62386 1.46962 4.83073 2.00007 4.83073H4.44015L5.05017 7.23015C5.05623 7.25778 5.0629 7.28528 5.07017 7.31262L7.78626 17.9745L6.0002 19.726C3.48012 22.2 5.26418 26.4295 8.82829 26.4295H26.0009C26.5313 26.4295 27.04 26.2226 27.4151 25.8544C27.7902 25.4861 28.0009 24.9867 28.0009 24.4659C28.0009 23.9452 27.7902 23.4458 27.4151 23.0775C27.04 22.7093 26.5313 22.5024 26.0009 22.5024H8.82829L10.8284 20.5389H24.0008C24.3721 20.5387 24.7361 20.437 25.0519 20.2453C25.3677 20.0535 25.6229 19.7792 25.7889 19.4531L31.7891 7.67195C31.9414 7.37266 32.0133 7.04013 31.998 6.7059C31.9826 6.37168 31.8806 6.04684 31.7014 5.76221C31.5223 5.47759 31.2721 5.24262 30.9745 5.07959C30.6769 4.91657 30.3418 4.83091 30.001 4.83073H8.56029L7.94026 2.39007C7.83192 1.96547 7.58216 1.58858 7.23066 1.31928C6.87916 1.04997 6.44607 0.903698 6.0002 0.903687H2.00007Z" fill="url(#paint0_linear)"/>
<path d="M28.001 31.3383C28.001 32.1194 27.6849 32.8685 27.1223 33.4209C26.5596 33.9732 25.7965 34.2835 25.0009 34.2835C24.2052 34.2835 23.4421 33.9732 22.8794 33.4209C22.3168 32.8685 22.0007 32.1194 22.0007 31.3383C22.0007 30.5571 22.3168 29.808 22.8794 29.2556C23.4421 28.7033 24.2052 28.393 25.0009 28.393C25.7965 28.393 26.5596 28.7033 27.1223 29.2556C27.6849 29.808 28.001 30.5571 28.001 31.3383Z" fill="url(#paint1_linear)"/>
<path d="M9.00031 34.2835C9.79597 34.2835 10.559 33.9732 11.1217 33.4209C11.6843 32.8685 12.0004 32.1194 12.0004 31.3383C12.0004 30.5571 11.6843 29.808 11.1217 29.2556C10.559 28.7033 9.79597 28.393 9.00031 28.393C8.20464 28.393 7.44156 28.7033 6.87894 29.2556C6.31632 29.808 6.00024 30.5571 6.00024 31.3383C6.00024 32.1194 6.31632 32.8685 6.87894 33.4209C7.44156 33.9732 8.20464 34.2835 9.00031 34.2835Z" fill="url(#paint2_linear)"/>
<defs>
<linearGradient id="paint0_linear" x1="16" y1="0.903687" x2="16" y2="26.4295" gradientUnits="userSpaceOnUse">
<stop stop-color="#E4E4E4"/>
<stop offset="1" stop-color="#404040"/>
</linearGradient>
<linearGradient id="paint1_linear" x1="25.0009" y1="28.393" x2="25.0009" y2="34.2835" gradientUnits="userSpaceOnUse">
<stop stop-color="#3D3D3D"/>
<stop offset="1" stop-color="#404040"/>
</linearGradient>
<linearGradient id="paint2_linear" x1="9.00031" y1="28.393" x2="9.00031" y2="34.2835" gradientUnits="userSpaceOnUse">
<stop stop-color="#3D3D3D"/>
<stop offset="1" stop-color="#404040"/>
</linearGradient>
</defs>
</svg>
