<svg width="18" height="12" viewBox="0 0 18 12" fill="none" xmlns="http://www.w3.org/2000/svg">
<path fill-rule="evenodd" clip-rule="evenodd" d="M17.6667 1.66667C17.6667 1.11439 17.219 0.666672 16.6667 0.666672H15.6667C15.1145 0.666672 14.6667 1.11439 14.6667 1.66667V10.3333C14.6667 10.8856 15.1145 11.3333 15.6667 11.3333H16.6667C17.219 11.3333 17.6667 10.8856 17.6667 10.3333V1.66667ZM11.0001 3.00001H12.0001C12.5524 3.00001 13.0001 3.44772 13.0001 4.00001V10.3333C13.0001 10.8856 12.5524 11.3333 12.0001 11.3333H11.0001C10.4478 11.3333 10.0001 10.8856 10.0001 10.3333V4.00001C10.0001 3.44772 10.4478 3.00001 11.0001 3.00001ZM7.33341 5.33334H6.33341C5.78113 5.33334 5.33341 5.78105 5.33341 6.33334V10.3333C5.33341 10.8856 5.78113 11.3333 6.33341 11.3333H7.33341C7.8857 11.3333 8.33341 10.8856 8.33341 10.3333V6.33334C8.33341 5.78105 7.8857 5.33334 7.33341 5.33334ZM3.66675 8.33334C3.66675 7.78105 3.21903 7.33334 2.66675 7.33334H1.66675C1.11446 7.33334 0.666748 7.78105 0.666748 8.33334V10.3333C0.666748 10.8856 1.11446 11.3333 1.66675 11.3333H2.66675C3.21903 11.3333 3.66675 10.8856 3.66675 10.3333V8.33334Z" fill="white"/>
</svg>
