<svg width="138" height="27" viewBox="0 0 138 27" fill="none" xmlns="http://www.w3.org/2000/svg">
<g clip-path="url(#clip0)">
<path d="M119.605 12.7059L136.748 1.27059C137.374 0.873529 137.139 0 136.434 0H130.329C129.938 0 129.624 0.0794118 129.39 0.317647L113.03 11.5147V0.873529C113.03 0.397059 112.639 0 112.169 0H108.177C107.707 0 107.316 0.397059 107.316 0.873529V26.2059C107.316 26.6824 107.707 27.0794 108.177 27.0794H112.169C112.639 27.0794 113.03 26.6824 113.03 26.2059V14.4529L130.251 26.7618C130.486 26.9206 130.877 27.0794 131.19 27.0794H137.374C138.078 27.0794 138.313 26.2059 137.765 25.7294L119.605 12.7059Z" fill="white"/>
<path d="M66.6124 16.1206H60.5852V22.3147H41.8773V16.1206H35.8501V21.8382C35.8501 25.4118 37.6504 27.0794 41.6425 27.0794C41.8773 27.0794 60.6635 27.0794 60.8983 27.0794C64.8904 27.0794 66.6907 25.4912 66.6907 21.8382L66.6124 16.1206Z" fill="white"/>
<path d="M60.8202 0C60.5854 0 41.7992 0 41.5644 0C37.5723 0 35.772 1.58824 35.772 5.24118V8.73529V10.8794H41.7992V4.68529H60.4288V10.8794H66.456V8.73529V5.24118C66.6126 1.66765 64.8123 0 60.8202 0Z" fill="white"/>
<path d="M25.831 13.4206C28.0227 13.1029 29.6665 11.2765 29.6665 9.05294V5.24118C29.6665 1.66765 27.8661 0 23.8741 0H0.939308C0.469654 0 0 0.476471 0 0.952941V25.9676C0 26.6029 0.469654 27 0.939308 27H23.0913C27.4748 27 29.823 25.1735 29.823 21.6794V17.7088C29.9013 15.4853 28.101 13.5794 25.831 13.4206ZM5.71412 4.60588H21.6041C23.1696 4.60588 23.9524 5.32059 23.9524 6.90882V8.97353C23.9524 10.4824 23.1696 11.1971 21.6041 11.1971H5.71412V4.60588ZM24.0306 20.1706C24.0306 21.6794 23.2479 22.3941 21.6824 22.3941H5.71412V15.8029H21.7606C23.3261 15.8029 24.1089 16.5176 24.1089 18.1059V20.1706H24.0306Z" fill="white"/>
<path d="M102.15 25.7294L91.8174 16.8353C91.8174 16.8353 95.2616 16.8353 95.3398 16.8353C99.3319 16.8353 101.132 15.2471 101.132 11.5941V5.24118C101.132 1.66765 99.3319 0 95.3398 0H73.6575C73.1095 0 72.6399 0.476471 72.6399 1.03235V26.2059C72.6399 26.6824 73.0313 27.0794 73.5009 27.0794H77.493C77.9626 27.0794 78.354 26.6824 78.354 26.2059V16.7559H83.9899L95.3398 26.6029C95.6529 26.8412 95.966 27 96.514 27H101.758C102.463 27 102.776 26.2059 102.15 25.7294ZM78.354 4.60588H92.9916C94.5571 4.60588 95.3398 5.32059 95.3398 6.90882V10.0853C95.3398 11.5941 94.5571 12.3088 92.9916 12.3088H78.354V4.60588Z" fill="white"/>
</g>
<defs>
<clipPath id="clip0">
<rect width="138" height="27" fill="white"/>
</clipPath>
</defs>
</svg>
