<svg width="18" height="10" viewBox="0 0 18 10" fill="none" xmlns="http://www.w3.org/2000/svg">
<path d="M15.6898 0.386725C15.9444 0.138978 16.2882 0 16.6465 0C17.0047 0 17.3485 0.138978 17.6031 0.386725C17.7288 0.508382 17.8286 0.653396 17.8968 0.813325C17.9649 0.973254 18 1.1449 18 1.31829C18 1.49167 17.9649 1.66332 17.8968 1.82325C17.8286 1.98318 17.7288 2.12819 17.6031 2.24985L9.95764 9.61389C9.70247 9.86129 9.35844 10 9 10C8.64156 10 8.29753 9.86129 8.04236 9.61389L0.396874 2.24985C0.271178 2.12819 0.171358 1.98318 0.103223 1.82325C0.035088 1.66332 0 1.49167 0 1.31829C0 1.1449 0.035088 0.973254 0.103223 0.813325C0.171358 0.653396 0.271178 0.508382 0.396874 0.386725C0.651465 0.138978 0.995262 0 1.35354 0C1.71181 0 2.05561 0.138978 2.3102 0.386725L9.00294 6.42601L15.6898 0.386725Z" fill="white"/>
</svg>
