<svg width="21" height="15" viewBox="0 0 21 15" fill="none" xmlns="http://www.w3.org/2000/svg">
<path fill-rule="evenodd" clip-rule="evenodd" d="M10.3338 3.57389C12.5586 3.57399 14.6982 4.41168 16.3106 5.91383C16.432 6.0298 16.6261 6.02834 16.7457 5.91055L17.9063 4.76272C17.9668 4.70298 18.0006 4.62205 18.0001 4.53785C17.9996 4.45366 17.9649 4.37312 17.9036 4.31408C13.6717 0.339744 6.99533 0.339744 2.7634 4.31408C2.7021 4.37308 2.66732 4.45359 2.66676 4.53779C2.66619 4.62199 2.69989 4.70293 2.76039 4.76272L3.92134 5.91055C4.04084 6.02852 4.23506 6.02998 4.3564 5.91383C5.96897 4.41158 8.10888 3.57389 10.3338 3.57389ZM10.3322 7.29945C11.556 7.29937 12.736 7.75597 13.6431 8.58053C13.7658 8.69756 13.9591 8.69502 14.0787 8.57482L15.2392 7.39766C15.3004 7.33591 15.3343 7.25215 15.3334 7.16511C15.3325 7.07807 15.2969 6.99501 15.2346 6.93453C12.4723 4.35515 8.19453 4.35515 5.43224 6.93453C5.36985 6.99501 5.33425 7.07811 5.33343 7.16518C5.33261 7.25224 5.36664 7.336 5.42789 7.39766L6.58814 8.57482C6.70774 8.69502 6.901 8.69756 7.02369 8.58053C7.93019 7.75652 9.10931 7.29995 10.3322 7.29945ZM12.6667 10.023C12.6685 10.1085 12.6342 10.1909 12.5719 10.2507L10.5571 12.2419C10.498 12.3004 10.4175 12.3333 10.3335 12.3333C10.2495 12.3333 10.169 12.3004 10.1099 12.2419L8.0948 10.2507C8.03255 10.1908 7.99831 10.1084 8.00015 10.023C8.002 9.93751 8.03977 9.85659 8.10455 9.79931C9.39126 8.73356 11.2757 8.73356 12.5625 9.79931C12.6272 9.85664 12.6649 9.93758 12.6667 10.023Z" fill="white"/>
</svg>
