<svg width="244" height="48" viewBox="0 0 244 48" fill="none" xmlns="http://www.w3.org/2000/svg">
<g clip-path="url(#clip0)">
<path d="M211.476 22.5882L241.786 2.25882C242.893 1.55294 242.478 0 241.232 0H230.437C229.745 0 229.191 0.141176 228.776 0.564706L199.85 20.4706V1.55294C199.85 0.705882 199.158 0 198.328 0H191.269C190.439 0 189.747 0.705882 189.747 1.55294V46.5882C189.747 47.4353 190.439 48.1412 191.269 48.1412H198.328C199.158 48.1412 199.85 47.4353 199.85 46.5882V25.6941L230.298 47.5765C230.714 47.8588 231.406 48.1412 231.959 48.1412H242.893C244.138 48.1412 244.554 46.5882 243.585 45.7412L211.476 22.5882Z" fill="white"/>
<path d="M117.779 28.6587H107.122V39.6705H74.044V28.6587H63.3872V38.8234C63.3872 45.1763 66.5704 48.141 73.6288 48.141C74.044 48.141 107.26 48.141 107.675 48.141C114.734 48.141 117.917 45.3175 117.917 38.8234L117.779 28.6587Z" fill="white"/>
<path d="M107.537 0C107.122 0 73.9059 0 73.4907 0C66.4322 0 63.249 2.82353 63.249 9.31765V15.5294V19.3412H73.9059V8.32941H106.845V19.3412H117.502V15.5294V9.31765C117.779 2.96471 114.596 0 107.537 0Z" fill="white"/>
<path d="M45.6721 23.8588C49.5474 23.2941 52.4538 20.0471 52.4538 16.0941V9.31765C52.4538 2.96471 49.2706 0 42.2121 0H1.66081C0.830403 0 0 0.847059 0 1.69412V46.1647C0 47.2941 0.830403 48 1.66081 48H40.8281C48.5786 48 52.7306 44.7529 52.7306 38.5412V31.4824C52.869 27.5294 49.6858 24.1412 45.6721 23.8588ZM10.1032 8.18824H38.1985C40.9665 8.18824 42.3505 9.45882 42.3505 12.2824V15.9529C42.3505 18.6353 40.9665 19.9059 38.1985 19.9059H10.1032V8.18824ZM42.4889 35.8588C42.4889 38.5412 41.1049 39.8118 38.3369 39.8118H10.1032V28.0941H38.4753C41.2433 28.0941 42.6273 29.3647 42.6273 32.1882V35.8588H42.4889Z" fill="white"/>
<path d="M180.613 45.7412L162.344 29.9294C162.344 29.9294 168.434 29.9294 168.572 29.9294C175.631 29.9294 178.814 27.1059 178.814 20.6118V9.31765C178.814 2.96471 175.631 0 168.572 0H130.235C129.266 0 128.436 0.847059 128.436 1.83529V46.5882C128.436 47.4353 129.128 48.1412 129.958 48.1412H137.017C137.847 48.1412 138.539 47.4353 138.539 46.5882V29.7882H148.504L168.572 47.2941C169.126 47.7176 169.679 48 170.648 48H179.921C181.167 48 181.72 46.5882 180.613 45.7412ZM138.539 8.18824H164.42C167.188 8.18824 168.572 9.45882 168.572 12.2824V17.9294C168.572 20.6118 167.188 21.8824 164.42 21.8824H138.539V8.18824Z" fill="white"/>
</g>
<defs>
<clipPath id="clip0">
<rect width="244" height="48" fill="white"/>
</clipPath>
</defs>
</svg>
