<svg width="23" height="18" viewBox="0 0 23 18" fill="none" xmlns="http://www.w3.org/2000/svg">
<path fill-rule="evenodd" clip-rule="evenodd" d="M19.074 0.602166C19.4617 0.217822 19.9851 0.00151417 20.5311 7.91927e-06C21.077 -0.00149833 21.6016 0.211918 21.9915 0.594117C22.3813 0.976317 22.6051 1.49659 22.6144 2.04245C22.6237 2.58832 22.4178 3.11591 22.0412 3.51118L10.9814 17.3359C10.7913 17.5406 10.5619 17.7049 10.3069 17.819C10.0518 17.933 9.77643 17.9945 9.49711 17.9996C9.21779 18.0048 8.9403 17.9536 8.68122 17.8491C8.42214 17.7446 8.1868 17.5889 7.98927 17.3913L0.661338 10.0606C0.45719 9.87038 0.293448 9.64098 0.179881 9.3861C0.066313 9.13122 0.00524593 8.85607 0.000323371 8.57707C-0.00459919 8.29808 0.0467237 8.02095 0.151229 7.76222C0.255735 7.50349 0.411283 7.26846 0.608593 7.07114C0.805904 6.87383 1.04093 6.71829 1.29966 6.61378C1.5584 6.50928 1.83553 6.45795 2.11452 6.46287C2.39352 6.4678 2.66866 6.52886 2.92355 6.64243C3.17843 6.756 3.40783 6.91974 3.59805 7.12389L9.39945 12.9225L19.0213 0.663118C19.0385 0.641657 19.057 0.621298 19.0768 0.602166H19.074Z" fill="#3F3F3F"/>
</svg>
