<svg width="29" height="53" viewBox="0 0 29 53" fill="none" xmlns="http://www.w3.org/2000/svg">
<path d="M1.1215 6.80226C0.403035 6.05263 0 5.04034 0 3.98542C0 2.9305 0.403035 1.91821 1.1215 1.16858C1.47431 0.79847 1.89485 0.504551 2.35864 0.303932C2.82244 0.103313 3.32022 0 3.82303 0C4.32584 0 4.82362 0.103313 5.28741 0.303932C5.75121 0.504551 6.17175 0.79847 6.52455 1.16858L27.8803 23.6803C28.5977 24.4316 29 25.4446 29 26.5C29 27.5554 28.5977 28.5684 27.8803 29.3197L6.52455 51.8314C6.17175 52.2015 5.75121 52.4954 5.28741 52.6961C4.82362 52.8967 4.32584 53 3.82303 53C3.32022 53 2.82244 52.8967 2.35864 52.6961C1.89485 52.4954 1.47431 52.2015 1.1215 51.8314C0.403035 51.0818 0 50.0695 0 49.0146C0 47.9597 0.403035 46.9474 1.1215 46.1977L18.6354 26.4914L1.1215 6.80226Z" fill="white" fill-opacity="0.8"/>
</svg>
