<svg width="63" height="51" viewBox="0 0 63 51" fill="none" xmlns="http://www.w3.org/2000/svg">
<path fill-rule="evenodd" clip-rule="evenodd" d="M53.1364 1.67752C54.2165 0.606808 55.6746 0.00421819 57.1955 2.20615e-05C58.7164 -0.00417406 60.1778 0.590361 61.2639 1.65509C62.3499 2.71982 62.9732 4.1692 62.9992 5.68987C63.0251 7.21054 62.4515 8.68032 61.4024 9.78144L30.592 48.2944C30.0625 48.8647 29.4234 49.3224 28.7129 49.6402C28.0024 49.9579 27.2352 50.129 26.4571 50.1434C25.679 50.1579 24.9059 50.0152 24.1842 49.724C23.4624 49.4328 22.8068 48.9991 22.2565 48.4487L1.84236 28.0269C1.27364 27.4969 0.817489 26.8579 0.501112 26.1478C0.184735 25.4378 0.0146141 24.6713 0.000900846 23.894C-0.0128124 23.1168 0.130163 22.3448 0.421295 21.624C0.712427 20.9032 1.14575 20.2485 1.69542 19.6988C2.24509 19.1491 2.89984 18.7158 3.62061 18.4247C4.34138 18.1336 5.11341 17.9906 5.89064 18.0043C6.66786 18.018 7.43437 18.1881 8.14442 18.5045C8.85448 18.8209 9.49353 19.277 10.0235 19.8457L26.185 35.9996L52.9897 1.84732C53.0376 1.78753 53.0891 1.73081 53.1441 1.67752H53.1364Z" fill="white"/>
</svg>
