<svg width="45" height="45" viewBox="0 0 45 45" fill="none" xmlns="http://www.w3.org/2000/svg">
<g filter="url(#filter0_d)">
<path d="M17.4953 8.52081C12.5264 8.52081 8.51627 12.531 8.51627 17.5C8.51627 22.469 12.5264 26.4792 17.4953 26.4792C22.4642 26.4792 26.4743 22.469 26.4743 17.5C26.4743 12.531 22.4642 8.52081 17.4953 8.52081ZM17.4953 23.3358C14.2819 23.3358 11.6596 20.7134 11.6596 17.5C11.6596 14.2866 14.2819 11.6642 17.4953 11.6642C20.7087 11.6642 23.331 14.2866 23.331 17.5C23.331 20.7134 20.7087 23.3358 17.4953 23.3358ZM26.8421 6.0604C25.6819 6.0604 24.7451 6.99728 24.7451 8.15744C24.7451 9.3176 25.6819 10.2545 26.8421 10.2545C28.0022 10.2545 28.9391 9.32197 28.9391 8.15744C28.9394 7.88195 28.8854 7.60911 28.7801 7.35453C28.6749 7.09995 28.5204 6.86863 28.3256 6.67383C28.1308 6.47904 27.8995 6.32458 27.645 6.21932C27.3904 6.11406 27.1175 6.06005 26.8421 6.0604ZM34.998 17.5C34.998 15.0834 35.0199 12.6886 34.8842 10.2764C34.7485 7.47448 34.1093 4.9878 32.0605 2.93891C30.0073 0.885649 27.525 0.250846 24.7232 0.115129C22.3066 -0.0205877 19.9119 0.0013022 17.4997 0.0013022C15.0831 0.0013022 12.6884 -0.0205877 10.2762 0.115129C7.47434 0.250846 4.9877 0.890027 2.93886 2.93891C0.885633 4.99217 0.250841 7.47448 0.115127 10.2764C-0.0205873 12.693 0.00130217 15.0877 0.00130217 17.5C0.00130217 19.9123 -0.0205873 22.3114 0.115127 24.7236C0.250841 27.5255 0.890011 30.0122 2.93886 32.0611C4.99208 34.1143 7.47434 34.7492 10.2762 34.8849C12.6928 35.0206 15.0875 34.9987 17.4997 34.9987C19.9163 34.9987 22.311 35.0206 24.7232 34.8849C27.525 34.7492 30.0116 34.11 32.0605 32.0611C34.1137 30.0078 34.7485 27.5255 34.8842 24.7236C35.0243 22.3114 34.998 19.9166 34.998 17.5ZM31.1455 27.8232C30.8259 28.62 30.4407 29.2154 29.8234 29.8283C29.2061 30.4456 28.6151 30.8309 27.8183 31.1505C25.5156 32.0655 20.0476 31.8597 17.4953 31.8597C14.943 31.8597 9.47065 32.0655 7.16789 31.1549C6.37111 30.8353 5.77572 30.45 5.16282 29.8327C4.54554 29.2154 4.16029 28.6244 3.8407 27.8276C2.9301 25.5204 3.13586 20.0524 3.13586 17.5C3.13586 14.9477 2.9301 9.4752 3.8407 7.1724C4.16029 6.37561 4.54554 5.78021 5.16282 5.16729C5.7801 4.55438 6.37111 4.16474 7.16789 3.84515C9.47065 2.93453 14.943 3.1403 17.4953 3.1403C20.0476 3.1403 25.5199 2.93453 27.8227 3.84515C28.6195 4.16474 29.2149 4.55 29.8278 5.16729C30.4451 5.78458 30.8303 6.37561 31.1499 7.1724C32.0605 9.4752 31.8547 14.9477 31.8547 17.5C31.8547 20.0524 32.0605 25.5204 31.1455 27.8232Z" fill="white"/>
</g>
<defs>
<filter id="filter0_d" x="0" y="0" width="45" height="45" filterUnits="userSpaceOnUse" color-interpolation-filters="sRGB">
<feFlood flood-opacity="0" result="BackgroundImageFix"/>
<feColorMatrix in="SourceAlpha" type="matrix" values="0 0 0 0 0 0 0 0 0 0 0 0 0 0 0 0 0 0 127 0" result="hardAlpha"/>
<feOffset dx="5" dy="5"/>
<feGaussianBlur stdDeviation="2.5"/>
<feColorMatrix type="matrix" values="0 0 0 0 0 0 0 0 0 0 0 0 0 0 0 0 0 0 0.25 0"/>
<feBlend mode="normal" in2="BackgroundImageFix" result="effect1_dropShadow"/>
<feBlend mode="normal" in="SourceGraphic" in2="effect1_dropShadow" result="shape"/>
</filter>
</defs>
</svg>
