<svg width="29" height="53" viewBox="0 0 29 53" fill="none" xmlns="http://www.w3.org/2000/svg">
<path d="M27.8785 6.80226C28.597 6.05263 29 5.04034 29 3.98542C29 2.9305 28.597 1.91821 27.8785 1.16858C27.5257 0.79847 27.1052 0.504551 26.6414 0.303932C26.1776 0.103313 25.6798 0 25.177 0C24.6742 0 24.1764 0.103313 23.7126 0.303932C23.2488 0.504551 22.8283 0.79847 22.4754 1.16858L1.11973 23.6803C0.40226 24.4316 0 25.4446 0 26.5C0 27.5554 0.40226 28.5684 1.11973 29.3197L22.4754 51.8314C22.8283 52.2015 23.2488 52.4954 23.7126 52.6961C24.1764 52.8967 24.6742 53 25.177 53C25.6798 53 26.1776 52.8967 26.6414 52.6961C27.1052 52.4954 27.5257 52.2015 27.8785 51.8314C28.597 51.0818 29 50.0695 29 49.0146C29 47.9597 28.597 46.9474 27.8785 46.1977L10.3646 26.4914L27.8785 6.80226Z" fill="white" fill-opacity="0.8"/>
</svg>
